<?xml version="1.0" standalone="no"?>
<!DOCTYPE svg PUBLIC "-//W3C//DTD SVG 20010904//EN"
 "http://www.w3.org/TR/2001/REC-SVG-20010904/DTD/svg10.dtd">
<svg version="1.0" xmlns="http://www.w3.org/2000/svg"
 width="161.000000pt" height="74.000000pt" viewBox="0 0 161.000000 74.000000"
 preserveAspectRatio="xMidYMid meet">

<g transform="translate(0.000000,74.000000) scale(0.100000,-0.100000)"
fill="#000000" stroke="none">
<path d="M261 551 c-11 -7 -9 -10 8 -16 12 -3 19 -11 16 -16 -4 -5 0 -9 7 -9
8 0 7 -4 -4 -10 -11 -7 -25 -6 -42 1 -22 10 -24 15 -14 28 7 9 -2 3 -19 -13
-38 -34 -49 -73 -33 -121 21 -64 100 -107 167 -91 39 10 90 67 98 109 14 73
-54 147 -135 147 -19 0 -41 -4 -49 -9z m78 -75 c9 -11 8 -15 -5 -20 -38 -15
-74 0 -59 24 9 15 51 12 64 -4z m28 -118 c-6 -4 -16 -3 -22 3 -6 6 -5 13 5 19
9 6 17 5 22 -3 4 -6 2 -15 -5 -19z"/>
</g>
</svg>
