<?xml version="1.0" standalone="no"?>
<!DOCTYPE svg PUBLIC "-//W3C//DTD SVG 20010904//EN"
 "http://www.w3.org/TR/2001/REC-SVG-20010904/DTD/svg10.dtd">
<svg version="1.0" xmlns="http://www.w3.org/2000/svg"
 width="1024.000000pt" height="1024.000000pt" viewBox="0 0 1024.000000 1024.000000"
 preserveAspectRatio="xMidYMid meet">

<g transform="translate(0.000000,1024.000000) scale(0.100000,-0.100000)"
fill="#000000" stroke="none">
<path d="M4880 8480 c-347 -21 -707 -99 -1012 -219 -329 -130 -613 -294 -888
-515 -41 -33 -150 -135 -241 -226 -299 -299 -557 -679 -715 -1056 -233 -557
-308 -1209 -203 -1779 76 -413 225 -789 476 -1197 141 -229 437 -566 662 -755
84 -70 125 -111 123 -122 -2 -9 -1 -13 4 -9 4 5 12 -2 19 -15 6 -12 7 -25 3
-28 -15 -10 24 -79 44 -79 10 0 18 -4 18 -10 0 -5 7 -7 15 -4 10 4 15 0 15
-13 0 -26 30 -53 58 -53 15 0 22 -6 22 -19 0 -29 51 -77 77 -73 14 2 32 -6 47
-21 16 -16 27 -21 30 -14 2 7 5 2 5 -10 1 -13 -4 -23 -10 -23 -5 0 -7 -4 -4
-10 3 -5 17 -10 31 -10 17 0 30 -9 42 -30 9 -16 29 -35 44 -41 15 -6 40 -22
55 -36 16 -13 48 -35 73 -48 25 -13 54 -35 64 -49 10 -14 24 -26 30 -26 15 0
157 -68 176 -85 8 -7 32 -15 53 -19 20 -4 37 -11 37 -16 0 -5 15 -13 34 -20
34 -11 39 -12 119 -31 27 -6 51 -17 53 -24 3 -8 24 -17 46 -20 24 -4 36 -10
28 -15 -6 -4 10 -10 39 -14 37 -5 51 -11 51 -23 0 -13 9 -15 55 -10 53 5 102
-3 158 -26 15 -7 27 -15 27 -18 0 -3 75 -9 168 -13 92 -4 187 -12 212 -17 25
-5 52 -9 60 -9 8 1 44 1 80 1 35 0 99 8 141 19 43 11 89 20 104 20 14 0 38 6
53 14 15 7 56 16 91 19 35 3 67 10 70 16 4 6 12 6 21 1 8 -5 22 -4 34 3 12 6
46 14 76 18 30 4 59 14 65 22 10 13 46 24 110 31 16 2 31 8 33 15 2 6 12 11
23 11 10 0 19 4 19 9 0 5 9 13 20 16 11 3 27 14 37 23 12 12 18 13 21 4 7 -21
42 -14 42 8 0 13 7 20 20 20 13 0 20 7 20 20 0 15 7 20 29 20 16 0 32 6 34 13
4 9 8 8 17 -3 9 -11 13 -12 17 -2 2 6 12 12 22 12 9 0 23 9 31 20 8 11 24 20
37 20 12 0 25 5 28 10 3 6 20 10 37 10 21 0 31 6 35 20 3 11 12 20 19 20 8 0
14 3 14 8 0 4 18 16 40 26 22 11 40 23 40 28 0 15 27 38 44 38 9 0 16 5 16 10
0 6 6 10 13 10 15 0 107 85 107 99 0 5 9 13 20 16 11 3 20 12 20 20 0 7 16 16
36 19 25 5 34 11 30 22 -3 8 -1 14 4 14 4 0 23 16 41 35 19 19 43 35 55 35 28
0 54 30 54 64 0 34 28 66 40 46 6 -9 12 -10 26 -1 12 7 14 10 5 11 -7 0 -1 10
15 22 39 30 55 52 43 59 -5 3 -1 13 10 23 17 15 26 56 13 56 -3 0 -21 -14 -41
-31 -38 -33 -178 -134 -227 -165 -53 -33 -10 2 86 71 116 83 177 134 297 248
51 48 98 85 103 82 6 -4 9 -1 8 7 -2 7 3 12 9 11 7 -2 12 3 10 10 -1 6 5 11
13 9 8 -2 12 -1 8 3 -3 4 45 68 108 142 62 75 130 161 151 192 21 31 55 79 76
108 115 161 265 439 348 650 174 439 243 858 219 1331 -16 328 -71 609 -181
928 -86 253 -287 622 -478 879 -262 353 -560 618 -966 860 -167 99 -172 102
-362 179 -326 131 -583 197 -918 235 -135 15 -383 20 -535 11z m486 -221 c105
-10 417 -68 479 -89 28 -9 27 -9 -10 -4 -22 3 -49 7 -60 10 -17 3 -16 2 3 -7
17 -9 22 -21 22 -51 0 -32 3 -38 21 -38 19 0 21 -4 15 -31 -5 -27 -2 -32 27
-44 47 -21 23 -18 -78 9 -260 70 -399 86 -722 86 -283 0 -382 -12 -623 -73
-482 -123 -927 -353 -1246 -644 -51 -46 -95 -83 -99 -83 -4 0 -4 13 0 28 7 35
-24 78 -72 98 -27 12 -32 18 -24 32 12 22 98 102 180 167 35 28 75 60 89 73
13 12 70 50 126 84 56 34 115 72 131 85 65 48 366 177 590 253 196 67 492 129
685 143 110 8 466 6 566 -4z m574 -279 c18 -12 2 -12 -25 0 -13 6 -15 9 -5 9
8 0 22 -4 30 -9z m-715 -39 c-16 -7 -14 -9 14 -14 19 -4 43 -7 56 -7 12 0 30
-9 40 -20 13 -14 31 -20 62 -20 36 0 43 -3 43 -19 0 -11 -6 -22 -12 -24 -7 -3
1 -6 17 -8 l30 -2 -35 -7 c-28 -6 -30 -8 -10 -9 43 -2 244 -43 260 -53 11 -7
8 -8 -10 -4 -234 54 -388 71 -630 70 -266 -1 -418 -21 -645 -86 -346 -97 -748
-318 -1049 -576 l-129 -110 -21 21 c-52 52 -58 64 -46 86 20 39 244 232 360
310 254 173 639 343 930 410 82 20 289 56 360 64 66 7 435 6 415 -2z m93 -8
c-10 -2 -28 -2 -40 0 -13 2 -5 4 17 4 22 1 32 -1 23 -4z m211 -29 c9 -8 -45
-2 -64 6 -14 7 -8 8 20 3 22 -3 42 -7 44 -9z m54 -11 c-7 -2 -21 -2 -30 0 -10
3 -4 5 12 5 17 0 24 -2 18 -5z m82 -13 c27 -7 27 -8 5 -8 -14 0 -36 4 -50 8
-20 6 -21 8 -5 8 11 0 34 -4 50 -8z m95 -140 c11 -8 7 -9 -15 -4 -37 8 -45 14
-19 14 10 0 26 -5 34 -10z m-385 -94 l90 -13 -108 1 c-93 1 -110 -2 -121 -16
-14 -20 -36 -24 -36 -8 0 6 -7 10 -15 10 -10 0 -15 -10 -15 -30 0 -16 -5 -30
-11 -30 -7 0 -8 -14 -4 -40 7 -39 6 -40 -22 -41 -54 -1 9 -17 98 -25 46 -4 93
-11 104 -16 17 -7 16 -8 -5 -3 -60 13 -351 17 -455 6 -357 -39 -721 -174
-1058 -394 -65 -42 -140 -98 -167 -123 -28 -26 -50 -43 -50 -39 0 4 -7 2 -15
-5 -8 -7 -15 -8 -15 -3 0 6 -29 8 -69 5 -64 -4 -72 -2 -95 21 -54 54 -43 99
42 162 22 16 78 60 124 96 225 178 601 365 876 435 114 29 250 53 362 64 111
11 450 3 565 -14z m138 -23 c-7 -2 -21 -2 -30 0 -10 3 -4 5 12 5 17 0 24 -2
18 -5z m-100 -200 c-7 -2 -19 -2 -25 0 -7 3 -2 5 12 5 14 0 19 -2 13 -5z
m-2392 -51 c18 -15 22 -28 21 -68 0 -44 -4 -52 -44 -86 -50 -44 -67 -46 -96
-15 -32 34 -42 70 -31 111 19 68 99 99 150 58z m2034 -81 c31 -7 34 -9 13 -10
-20 -1 -26 -5 -22 -16 3 -8 -6 -29 -20 -46 -14 -17 -26 -39 -26 -50 0 -10 -6
-19 -14 -19 -8 0 -17 -11 -20 -25 -4 -14 -13 -25 -21 -25 -18 0 -19 -14 -5
-41 9 -16 7 -19 -10 -19 -12 0 -19 -4 -15 -9 3 -5 -3 -12 -12 -14 -10 -3 45
-6 122 -8 l140 -2 -155 -7 c-164 -8 -242 -21 -405 -71 -155 -47 -199 -65 -355
-145 -155 -79 -307 -188 -435 -312 -44 -43 -60 -54 -43 -31 l27 36 -40 24
c-22 13 -56 34 -75 46 -89 58 -134 73 -134 45 0 -8 -3 -13 -6 -9 -3 3 -17 -6
-31 -21 -52 -56 29 51 97 127 140 158 445 366 656 450 255 101 447 142 734
159 8 0 33 -3 55 -7z m392 -37 c-3 -3 -12 -4 -19 -1 -8 3 -5 6 6 6 11 1 17 -2
13 -5z m90 -20 c-3 -3 -12 -4 -19 -1 -8 3 -5 6 6 6 11 1 17 -2 13 -5z m40 -10
c-3 -3 -12 -4 -19 -1 -8 3 -5 6 6 6 11 1 17 -2 13 -5z m-229 -241 c-10 -2 -26
-2 -35 0 -10 3 -2 5 17 5 19 0 27 -2 18 -5z m-2068 -117 c0 -2 -8 -10 -17 -17
-16 -13 -17 -12 -4 4 13 16 21 21 21 13z m2049 -211 c180 -36 410 -134 481
-205 22 -22 37 -40 33 -40 -4 0 11 -19 33 -42 42 -45 74 -105 74 -139 0 -12
-9 -33 -20 -49 -11 -15 -17 -30 -14 -33 7 -7 -18 -67 -27 -67 -11 0 -29 26
-24 33 3 4 2 5 -2 2 -3 -3 -22 7 -42 22 -20 15 1 -10 46 -56 162 -165 281
-385 328 -606 23 -107 31 -304 16 -391 -41 -236 -162 -477 -335 -662 -61 -65
-193 -160 -296 -212 -222 -112 -555 -141 -825 -71 -438 113 -763 465 -841 913
-19 110 -13 332 11 438 17 71 68 215 95 270 10 19 18 38 19 43 1 4 10 16 22
28 11 11 18 27 15 35 -3 8 -2 12 4 9 5 -3 16 7 24 22 8 15 35 52 60 81 25 30
46 57 46 60 -1 7 -24 -18 -74 -78 -15 -19 -26 -27 -23 -18 5 15 -1 17 -53 14
l-59 -3 -6 49 c-4 26 -11 51 -16 54 -6 3 -5 11 2 20 9 11 7 18 -10 33 -11 10
-21 23 -21 29 0 35 191 217 315 302 164 111 413 205 614 230 92 12 361 3 450
-15z m638 -447 c-3 -7 -5 -2 -5 12 0 14 2 19 5 13 2 -7 2 -19 0 -25z m-2037
-119 c-7 -11 -14 -18 -17 -15 -3 3 0 12 7 21 18 21 23 19 10 -6z m2381 -2109
c11 0 34 -7 51 -16 20 -11 44 -14 68 -10 42 7 72 -10 95 -54 26 -50 19 -71
-47 -138 -174 -179 -466 -351 -726 -427 -68 -20 -126 -34 -130 -31 -3 3 2 6
11 6 22 0 21 8 -3 45 -22 34 -45 107 -55 178 -3 26 -12 47 -18 47 -7 0 39 21
101 45 242 96 413 197 587 349 28 24 41 30 43 20 2 -8 12 -14 23 -14z m419
-337 c80 -86 78 -75 23 -134 -160 -173 -471 -379 -718 -477 -119 -47 -274 -96
-282 -88 -3 3 7 8 21 12 25 6 26 8 13 28 -13 19 -41 124 -39 143 0 4 -9 13
-20 19 -20 11 -20 12 13 19 124 26 483 204 621 308 118 88 226 177 257 210 22
24 26 25 50 12 14 -7 42 -31 61 -52z m207 -247 c29 -16 54 -34 57 -41 13 -36
-252 -271 -437 -387 -121 -77 -286 -162 -400 -207 -91 -36 -227 -74 -207 -58
11 9 14 28 12 72 l-3 61 58 24 c155 63 400 197 528 288 86 62 238 188 285 236
24 25 47 45 50 44 3 -2 29 -16 57 -32z m127 -295 c14 -14 26 -29 26 -35 0 -5
9 -19 20 -31 l21 -22 -102 -88 c-226 -194 -421 -317 -701 -444 -158 -71 -212
-91 -128 -46 25 13 38 24 29 25 -14 0 -16 8 -11 46 6 57 -12 97 -42 89 -15 -4
-14 -2 4 7 322 152 578 316 771 493 63 58 74 65 80 49 4 -11 19 -30 33 -43z
m-3929 -511 c3 -5 1 -10 -4 -10 -6 0 -11 5 -11 10 0 6 2 10 4 10 3 0 8 -4 11
-10z m44 -44 c-3 -3 -11 5 -18 17 -13 21 -12 21 5 5 10 -10 16 -20 13 -22z
m86 -46 c3 -5 2 -10 -4 -10 -5 0 -13 5 -16 10 -3 6 -2 10 4 10 5 0 13 -4 16
-10z m3538 -28 c-27 -20 -131 -79 -121 -67 9 9 131 84 138 84 3 0 -5 -7 -17
-17z m-3438 -36 c11 -8 16 -15 10 -15 -5 -1 -21 8 -34 18 -14 10 -32 17 -40
14 -14 -4 -14 -3 -2 5 15 11 30 6 66 -22z m75 -48 c0 -10 -36 7 -45 22 -4 6 5
5 19 -2 14 -6 26 -15 26 -20z m340 -373 c10 -12 10 -15 -4 -15 -9 0 -16 7 -16
15 0 8 2 15 4 15 2 0 9 -7 16 -15z m910 -325 c0 -5 -11 -10 -25 -10 -14 0 -25
5 -25 10 0 6 11 10 25 10 14 0 25 -4 25 -10z"/>
<path d="M5785 8030 c3 -5 8 -10 11 -10 2 0 4 5 4 10 0 6 -5 10 -11 10 -5 0
-7 -4 -4 -10z"/>
<path d="M5810 8031 c0 -6 4 -13 10 -16 6 -3 7 1 4 9 -7 18 -14 21 -14 7z"/>
<path d="M5330 7830 c-8 -5 -10 -10 -5 -10 6 0 17 5 25 10 8 5 11 10 5 10 -5
0 -17 -5 -25 -10z"/>
<path d="M5378 7823 c7 -3 16 -2 19 1 4 3 -2 6 -13 5 -11 0 -14 -3 -6 -6z"/>
<path d="M4960 6309 c-339 -40 -662 -237 -814 -497 -117 -201 -166 -369 -166
-578 0 -259 98 -512 276 -709 122 -136 338 -266 518 -310 291 -73 601 -27 860
127 90 53 253 210 318 306 87 128 170 364 184 523 20 230 -111 607 -265 760
-20 20 -61 62 -91 93 -68 71 -139 120 -266 185 -167 85 -371 122 -554 100z
m315 -119 c171 -38 358 -150 512 -309 56 -57 72 -89 40 -78 -7 2 -27 -3 -46
-10 -18 -8 -45 -11 -61 -8 -20 4 -29 2 -33 -9 -4 -9 -18 -16 -35 -16 -45 0
-313 -70 -329 -85 -8 -8 -26 -15 -41 -15 -15 0 -52 -7 -82 -15 -30 -8 -70 -15
-87 -15 -23 0 -33 -5 -33 -15 0 -12 -17 -15 -97 -15 -53 0 -111 -5 -129 -12
-25 -9 -42 -9 -71 0 -21 7 -54 14 -75 16 -20 2 -45 9 -55 14 -34 18 -184 25
-285 12 -72 -8 -102 -8 -118 0 -21 11 -64 5 -56 -8 2 -4 -6 -12 -19 -18 -40
-19 -37 8 6 75 21 33 39 63 39 66 0 3 22 38 49 78 53 77 131 147 269 240 185
125 499 179 737 127z m-187 -697 c-10 -2 -26 -2 -35 0 -10 3 -2 5 17 5 19 0
27 -2 18 -5z m209 -280 c-2 -16 -4 -5 -4 22 0 28 2 40 4 28 2 -13 2 -35 0 -50z
m-32 -115 c-45 -88 -115 -138 -193 -138 -59 0 -140 28 -175 61 l-32 30 46 -31
c60 -41 147 -51 215 -25 56 21 117 74 134 115 7 17 15 29 17 26 2 -2 -3 -19
-12 -38z"/>
<path d="M4592 5970 c0 -19 2 -27 5 -17 2 9 2 25 0 35 -3 9 -5 1 -5 -18z"/>
<path d="M5750 6186 c0 -2 8 -10 18 -17 15 -13 16 -12 3 4 -13 16 -21 21 -21
13z"/>
<path d="M7262 2827 c-7 -8 -9 -17 -5 -20 3 -4 0 -7 -9 -7 -8 0 -23 -9 -33
-20 -10 -11 -13 -20 -8 -20 6 0 16 7 23 15 7 8 18 15 26 15 7 0 16 9 19 21 8
26 1 34 -13 16z"/>
<path d="M7285 2810 c-3 -5 3 -10 14 -10 12 0 21 5 21 10 0 6 -6 10 -14 10 -8
0 -18 -4 -21 -10z"/>
<path d="M7176 2741 c-4 -7 -5 -15 -2 -18 9 -9 19 4 14 18 -4 11 -6 11 -12 0z"/>
<path d="M3007 2654 c6 -17 36 -19 31 -2 -2 6 -11 12 -20 14 -11 1 -15 -3 -11
-12z"/>
</g>
</svg>
